HIERARCHY
ROOT Hips
{
	OFFSET 51.605801 15.100290 56.121403
	CHANNELS 6 Xposition Yposition Zposition Xrotation Yrotation Zrotation
	JOINT spine
	{
		OFFSET 0.000000 -0.458068 7.965679
		CHANNELS 3 Xrotation Yrotation Zrotation
		JOINT spine1
		{
			OFFSET 0.000000 -0.000002 10.243103
			CHANNELS 3 Xrotation Yrotation Zrotation
			JOINT spine2
			{
				OFFSET 0.000000 -0.000001 9.814751
				CHANNELS 3 Xrotation Yrotation Zrotation
				JOINT Neck
				{
					OFFSET 0.000000 -1.201385 25.198601
					CHANNELS 3 Xrotation Yrotation Zrotation
					JOINT Head
					{
						OFFSET 0.000000 -0.000001 7.613152
						CHANNELS 3 Xrotation Yrotation Zrotation
						End Site
						{
							OFFSET 0.000000 6.077326 18.428108
						}
					}
				}
				JOINT RightShoulder
				{
					OFFSET -4.132702 0.575449 10.599197
					CHANNELS 3 Xrotation Yrotation Zrotation
					JOINT RightArm
					{
						OFFSET 0.000000 -0.000003 13.901802
						CHANNELS 3 Xrotation Yrotation Zrotation
						JOINT RightArmRoll
						{
							OFFSET 0.000000 -0.000001 7.017891
							CHANNELS 3 Xrotation Yrotation Zrotation
							JOINT RightForeArm
							{
								OFFSET 0.000000 -0.000003 20.440605
								CHANNELS 3 Xrotation Yrotation Zrotation
								JOINT RightForeArmRoll
								{
									OFFSET 0.000000 -0.000002 7.875153
									CHANNELS 3 Xrotation Yrotation Zrotation
									JOINT RightHand
									{
										OFFSET 0.000000 -0.000002 15.803696
										CHANNELS 3 Xrotation Yrotation Zrotation
										End Site
										{
											OFFSET 0.000000 0.000000 0.100006
										}
									}
								}
							}
						}
					}
				}
				JOINT LeftShoulder
				{
					OFFSET 4.132702 0.575449 10.599197
					CHANNELS 3 Xrotation Yrotation Zrotation
					JOINT LeftArm
					{
						OFFSET 0.000000 -0.000003 13.901802
						CHANNELS 3 Xrotation Yrotation Zrotation
						JOINT LeftArmRoll
						{
							OFFSET 0.000000 -0.000001 7.017891
							CHANNELS 3 Xrotation Yrotation Zrotation
							JOINT LeftForeArm
							{
								OFFSET 0.000000 -0.000003 20.440605
								CHANNELS 3 Xrotation Yrotation Zrotation
								JOINT LeftForeArmRoll
								{
									OFFSET 0.000000 -0.000002 7.875153
									CHANNELS 3 Xrotation Yrotation Zrotation
									JOINT LeftHand
									{
										OFFSET 0.000000 -0.000002 15.803696
										CHANNELS 3 Xrotation Yrotation Zrotation
										End Site
										{
											OFFSET 0.000000 0.000000 0.100006
										}
									}
								}
							}
						}
					}
				}
			}
		}
	}
	JOINT RightUpLeg
	{
		OFFSET -7.060482 1.086100 -1.294701
		CHANNELS 3 Xrotation Yrotation Zrotation
		JOINT RightUpLegRoll
		{
			OFFSET 0.000000 -0.000002 18.530796
			CHANNELS 3 Xrotation Yrotation Zrotation
			JOINT RightLeg
			{
				OFFSET 0.000000 0.000004 -22.947598
				CHANNELS 3 Xrotation Yrotation Zrotation
				JOINT RightLegRoll
				{
					OFFSET 0.000000 -0.000004 23.022594
					CHANNELS 3 Xrotation Yrotation Zrotation
					JOINT RightFoot
					{
						OFFSET 0.000000 -0.000004 19.162498
						CHANNELS 3 Xrotation Yrotation Zrotation
						JOINT RightToeBase
						{
							OFFSET 0.000000 -0.000002 16.018799
							CHANNELS 3 Xrotation Yrotation Zrotation
							End Site
							{
								OFFSET 0.006790 0.894203 7.757820
							}
						}
					}
				}
			}
		}
	}
	JOINT LeftUpLeg
	{
		OFFSET 7.060482 1.086100 -1.294701
		CHANNELS 3 Xrotation Yrotation Zrotation
		JOINT LeftUpLegRoll
		{
			OFFSET 0.000000 -0.000002 18.530895
			CHANNELS 3 Xrotation Yrotation Zrotation
			JOINT LeftLeg
			{
				OFFSET 0.000000 -0.000004 22.947502
				CHANNELS 3 Xrotation Yrotation Zrotation
				JOINT LeftLegRoll
				{
					OFFSET 0.000000 -0.000004 23.235504
					CHANNELS 3 Xrotation Yrotation Zrotation
					JOINT LeftFoot
					{
						OFFSET 0.000000 -0.000004 18.949600
						CHANNELS 3 Xrotation Yrotation Zrotation
						JOINT LeftToeBase
						{
							OFFSET 0.000000 -0.000002 16.018799
							CHANNELS 3 Xrotation Yrotation Zrotation
							End Site
							{
								OFFSET -0.030430 0.894203 7.757828
							}
						}
					}
				}
			}
		}
	}
}
MOTION
Frames: 4
Frame Time: 0.041667
51.333694 12.702190 58.407608 11.445815 -4.053506 6.975135 2.407538 0.565721 -0.100137 8.819499 1.132335 -0.240615 10.464755 1.129382 -0.254171 15.135009 -4.102437 -4.127806 9.907025 2.648055 -4.604630 -9.799445 -60.926428 -11.688802 -56.529265 -123.345567 -83.404464 -0.000001 -0.000000 0.000000 69.680593 -8.507892 1.862347 -0.000003 0.000010 -2.999993 -5.000195 -7.999091 0.000090 3.450687 58.386199 -4.085581 -63.463891 125.277895 93.961219 0.000001 -0.000003 -0.000000 72.623052 10.180640 -2.082328 -0.000002 -0.000007 3.007569 -5.000172 7.999934 -0.000025 -96.640531 -171.994818 -3.704972 -179.999991 0.000005 -0.805998 99.090294 4.909852 -0.051549 0.000002 0.000001 1.574739 64.690545 5.380314 5.914885 25.456952 -7.355616 -0.000000 -94.199886 182.403057 -1.323723 -0.000020 -0.000005 -1.064670 -79.383020 -1.898059 1.462678 -0.000005 0.000003 -1.439930 63.376376 -5.454560 -5.713113 25.457051 7.355617 -0.000158 
51.323692 12.737188 58.398403 11.222559 -4.097612 6.945400 2.407183 0.572565 -0.099606 8.818790 1.145816 -0.239685 10.464009 1.142867 -0.253401 15.096019 -4.077565 -4.106787 9.895535 2.629724 -4.578588 -9.805110 -60.912911 -11.694635 -56.453013 -123.485599 -83.162129 -0.000001 -0.000000 0.000001 69.381717 -8.628777 1.950887 -0.000001 0.000009 -2.999995 -5.000196 -7.999092 0.000090 3.454740 58.471166 -4.077817 -63.472053 125.344654 93.803468 0.000001 -0.000004 0.000004 72.353806 10.285047 -2.177749 -0.000001 -0.000005 3.007570 -5.000175 7.999933 -0.000027 -96.449306 -172.006293 -3.696192 -179.999991 0.000005 -0.810998 99.078075 4.939724 -0.033385 0.000002 0.000001 1.577020 64.690928 5.382239 5.910297 25.456953 -7.355616 0.000001 -94.003122 182.372963 -1.345748 -0.000020 -0.000005 -1.069240 -79.392903 -1.899370 1.467134 -0.000005 0.000003 -1.442930 63.386491 -5.459843 -5.700755 25.457054 7.355618 -0.000157 
51.310799 12.767490 58.380802 10.989098 -4.145082 6.909650 2.408881 0.579917 -0.097965 8.822183 1.160243 -0.236456 10.467363 1.157330 -0.250344 15.054473 -4.049580 -4.085569 9.885805 2.607083 -4.551607 -9.811676 -60.893889 -11.701200 -56.369172 -123.626861 -82.911892 -0.000002 -0.000000 0.000001 69.080226 -8.748275 2.037599 -0.000003 0.000012 -2.999991 -5.000195 -7.999091 0.000089 3.459006 58.551715 -4.070972 -63.469915 125.413079 93.634742 0.000002 -0.000003 0.000001 72.080038 10.388363 -2.272490 -0.000001 -0.000005 3.007571 -5.000178 7.999935 -0.000023 -96.248560 -172.022344 -3.684753 -179.999991 0.000005 -0.816995 99.066047 4.972583 -0.015488 0.000003 0.000001 1.579490 64.689507 5.384385 5.905251 25.456953 -7.355614 -0.000000 -93.796044 182.337501 -1.370177 -0.000019 -0.000005 -1.073990 -79.403702 -1.901236 1.472927 -0.000005 0.000003 -1.446050 63.397037 -5.464764 -5.689191 25.457051 7.355617 -0.000157 
51.308495 12.788191 58.369308 10.747038 -4.195111 6.868769 2.412298 0.587656 -0.095380 8.829025 1.175370 -0.231265 10.474220 1.172516 -0.245334 15.010678 -4.018833 -4.064205 9.877592 2.580684 -4.523840 -9.818996 -60.870270 -11.708364 -56.280749 -123.768519 -82.657105 -0.000000 -0.000000 0.000001 68.776481 -8.866510 2.122588 -0.000004 0.000012 -2.999993 -5.000199 -7.999093 0.000089 3.463563 58.628158 -4.065094 -63.460333 125.482514 93.458134 0.000001 -0.000004 -0.000001 71.801851 10.490821 -2.366129 -0.000003 -0.000005 3.007572 -5.000172 7.999932 -0.000023 -96.039857 -172.042261 -3.672591 -179.999991 0.000005 -0.823005 99.054183 5.008024 0.004226 0.000003 0.000001 1.582110 64.686597 5.386738 5.899625 25.456952 -7.355615 -0.000000 -93.580354 182.297517 -1.397725 -0.000020 -0.000005 -1.078900 -79.415204 -1.903632 1.479756 -0.000005 0.000002 -1.449270 63.407945 -5.469380 -5.678033 25.457051 7.355616 -0.000158 
